<svg width="2173" height="2219" viewBox="0 0 2173 2219" fill="none" xmlns="http://www.w3.org/2000/svg">
<g filter="url(#filter0_f_38_44)">
<path d="M1667.08 1062.5C1667.08 1359.58 1384.28 1712.55 1071.83 1712.55C759.386 1712.55 506.097 1471.72 506.097 1174.64C506.097 877.554 788.895 524.586 1101.34 524.586C1232.29 524.586 1378.97 472.125 1474.85 543.135C1607.74 641.565 1667.08 889.921 1667.08 1062.5Z" fill="url(#paint0_radial_38_44)" fill-opacity="0.75"/>
</g>
<path d="M1053.45 1151.25V971.662H1091.9V1056.9L1074.95 1044.76H1177.14L1159.94 1056.9V971.662H1198.39V1151.25H1159.94V1065L1177.14 1077.14H1074.95L1091.9 1065V1151.25H1053.45ZM1230.26 1151.25V1015.67H1268.21V1151.25H1230.26ZM1229.51 998.979V968.627H1268.71V998.979H1229.51ZM1337.13 1151.25L1287.55 1015.67H1327.26L1359.39 1113.05L1391.26 1015.67H1430.97L1381.14 1151.25H1337.13ZM1506.86 1154.28C1493.03 1154.28 1480.98 1151.42 1470.69 1145.68C1460.57 1139.78 1452.65 1131.52 1446.92 1120.9C1441.35 1110.27 1438.57 1097.79 1438.57 1083.46C1438.57 1069.13 1441.35 1056.73 1446.92 1046.28C1452.65 1035.66 1460.57 1027.39 1470.69 1021.49C1480.81 1015.59 1492.78 1012.64 1506.61 1012.64C1520.1 1012.64 1531.82 1015.59 1541.77 1021.49C1551.72 1027.39 1559.39 1035.82 1564.78 1046.78C1570.35 1057.74 1573.13 1070.81 1573.13 1085.99V1093.58H1477.77C1478.28 1104.37 1481.15 1112.38 1486.37 1117.61C1491.77 1122.83 1498.85 1125.45 1507.62 1125.45C1514.03 1125.45 1519.34 1124.1 1523.56 1121.4C1527.94 1118.7 1531.06 1114.57 1532.91 1109.01L1571.11 1111.28C1567.57 1124.77 1560.06 1135.31 1548.6 1142.9C1537.13 1150.49 1523.22 1154.28 1506.86 1154.28ZM1477.77 1070.31H1534.18C1533.67 1060.36 1530.89 1052.94 1525.83 1048.05C1520.94 1043.16 1514.53 1040.71 1506.61 1040.71C1498.68 1040.71 1492.11 1043.33 1486.88 1048.55C1481.82 1053.61 1478.79 1060.86 1477.77 1070.31Z" fill="white"/>
<rect x="678.938" y="855.091" width="843.125" height="84.3125" rx="42.1562" fill="#E09D39"/>
<rect x="721.094" y="1293.52" width="758.812" height="84.3125" rx="42.1562" fill="#E09D39"/>
<rect x="721.094" y="745.485" width="758.812" height="84.3125" rx="42.1562" fill="#E09D39"/>
<rect x="763.25" y="635.879" width="674.5" height="84.3125" rx="42.1562" fill="#E09D39"/>
<rect x="763.25" y="1403.12" width="674.5" height="84.3125" rx="42.1562" fill="#E09D39"/>
<path d="M594.625 1006.85C594.625 983.572 613.499 964.698 636.781 964.698H987.521C1010.8 964.698 1029.68 983.572 1029.68 1006.85V1049.01H636.781C613.499 1049.01 594.625 1030.14 594.625 1006.85V1006.85Z" fill="#E09D39"/>
<path d="M594.625 1116.46C594.625 1093.18 613.499 1074.3 636.781 1074.3H1029.68V1116.46C1029.68 1139.74 1010.8 1158.62 987.521 1158.62H636.781C613.499 1158.62 594.625 1139.74 594.625 1116.46V1116.46Z" fill="#E09D39"/>
<rect x="678.938" y="1183.91" width="843.125" height="84.3125" rx="42.1562" fill="#E09D39"/>
<defs>
<filter id="filter0_f_38_44" x="0.221954" y="0.0526428" width="2172.73" height="2218.37" filterUnits="userSpaceOnUse" color-interpolation-filters="sRGB">
<feFlood flood-opacity="0" result="BackgroundImageFix"/>
<feBlend mode="normal" in="SourceGraphic" in2="BackgroundImageFix" result="shape"/>
<feGaussianBlur stdDeviation="252.937" result="effect1_foregroundBlur_38_44"/>
</filter>
<radialGradient id="paint0_radial_38_44" cx="0" cy="0" r="1" gradientUnits="userSpaceOnUse" gradientTransform="translate(1086.59 1108.73) rotate(91.6082) scale(705.96 681.018)">
<stop stop-color="#481C87"/>
<stop offset="1" stop-color="#481C87" stop-opacity="0.75"/>
</radialGradient>
</defs>
</svg>
